<svg width="220" height="150" viewBox="0 0 220 150" fill="none" xmlns="http://www.w3.org/2000/svg">
<g style="mix-blend-mode:luminosity" clip-path="url(#clip0_3328_23604)">
<path d="M186.172 36.3145L186.372 125.812L109.999 144.308V51.6285L186.172 36.3145Z" fill="#FFBA59"/>
<path d="M109.999 19.209L186.172 36.3134L109.999 51.6274V19.209Z" fill="#DB8829"/>
<path d="M33.8311 36.511L109.999 19.209V51.6274L33.8311 36.511Z" fill="#CC7F26"/>
<path d="M33.8306 36.5117L109.999 51.6282V144.308L33.6279 125.812L33.8272 36.5134L33.8306 36.5117Z" fill="#FFAF40"/>
<path d="M186.262 36.4017L210.354 20.6181L137.415 5L109.999 19.2889L186.262 36.4017Z" fill="#FFBF66"/>
<path d="M33.7373 36.4017L9.64551 20.6181L82.5845 5L109.999 19.2889L33.7373 36.4017Z" fill="#FFBF66"/>
<path d="M186.262 36.4023L217 64.3146L136.417 81.4291L109.999 51.6877L186.262 36.4023Z" fill="#FFBF66"/>
<path opacity="0.2" d="M136.417 81.4289L186.262 70.8423L132.431 86.9114L109.999 51.6875L136.417 81.4289Z" fill="#AB4900"/>
<path d="M109.999 143.663V144.308L33.6279 125.812L33.8188 40.1719C37.9433 98.0535 84.3922 130.217 109.999 143.663Z" fill="#FFA629"/>
<path d="M33.7379 36.4023L3 64.3146L83.5817 81.4291L109.999 51.6877L33.7379 36.4023Z" fill="#FFBF66"/>
<path opacity="0.2" d="M83.5821 81.4289L33.7383 70.8423L87.5698 86.9114L110 51.6875L83.5821 81.4289Z" fill="#AB4900"/>
</g>
<defs>
<clipPath id="clip0_3328_23604">
<rect width="214" height="139.308" fill="white" transform="translate(3 5)"/>
</clipPath>
</defs>
</svg>
