<svg width="1600" height="1600" viewBox="0 0 1600 1600" fill="none" xmlns="http://www.w3.org/2000/svg">
<path d="M1184.29 1383.43C1184.29 1383.43 1236.07 1383.14 1293.5 1303.14C1343.68 1233.18 1248.43 1016.57 1195.04 966.75C1141.64 916.928 1037.71 1189.04 1049.79 1257.96C1066.96 1356.18 1141 1380.93 1184.29 1383.43Z" fill="#587FC3"/>
<path d="M1268.32 1248.86L1188.61 1328.11L1196.64 1530.04H1170.25C1169.93 1528.64 1170.93 1389.54 1171.79 1227.29L1110.68 1168.68C1115.32 1168.68 1107.11 1160.75 1106.18 1159.96L1172.07 1205.61C1172.61 1104.21 1173.11 1022.57 1173.11 1022.57L1179.07 1015.11L1182.39 1123.54L1238.75 1082.96C1237.93 1083.75 1229.61 1091.68 1234.25 1091.68L1182.96 1142.68L1187.75 1298.89L1274.75 1236.29C1273.57 1237.5 1261.64 1248.86 1268.32 1248.86Z" stroke="#263238" stroke-miterlimit="10"/>
<path d="M1421.21 1449.18C1421.21 1449.18 1484.21 1444.64 1515.64 1384.89C1549.57 1320.29 1466.82 1167.04 1424.54 1155.68C1378.11 1143.14 1304.82 1265.61 1319.82 1360.75C1330.11 1425.68 1392.11 1447.54 1421.21 1449.18Z" fill="#587FC3"/>
<path d="M1468.5 1332.03L1424.57 1366.93C1423.21 1285 1422.07 1219.57 1422.07 1219.57L1416.68 1213.43L1414.68 1297.11V1298.93L1377.39 1269.68C1377.39 1269.68 1383.36 1275.75 1380.29 1275.78L1414.21 1312.68L1411.93 1408.89L1355.61 1364.57C1355.61 1364.57 1364.04 1373.18 1359.71 1373.21L1411.39 1429.43L1411.11 1440.53L1410.79 1452.5L1409.04 1528.39L1427.25 1528.18C1426.82 1503.78 1426.43 1478.18 1426.04 1452.61C1425.68 1430.82 1425.25 1409 1424.96 1388.03C1424.96 1386.46 1424.96 1385 1424.96 1383.46L1465.32 1339.28C1461.61 1339.32 1468.5 1332.03 1468.5 1332.03Z" stroke="#263238" stroke-miterlimit="10"/>
<path d="M1342.75 1496.14C1336.89 1491.43 1326.36 1491.54 1317.11 1491.93C1317.79 1486.04 1320.25 1480.21 1320.96 1474.29C1321.53 1471.23 1321.22 1468.07 1320.08 1465.18C1318.94 1462.29 1317 1459.77 1314.5 1457.93C1304.36 1450.79 1286.5 1453.57 1272.5 1457.64C1274.43 1443.79 1259.68 1430.29 1239.93 1428.14C1220.18 1426 1198.21 1435.64 1192.43 1449.18C1184.43 1441.54 1168.46 1438.46 1155.14 1442.04C1141.82 1445.61 1132.36 1455.57 1133.04 1465.18C1122.82 1464.5 1111.43 1464.04 1102.96 1468.43C1090.54 1474.93 1091.39 1488.07 1081.82 1496.57C1078.73 1495.98 1075.54 1496.24 1072.58 1497.32C1069.62 1498.4 1067.02 1500.27 1065.04 1502.71C1061.79 1506.96 1061.21 1511.82 1059.25 1516.39C1055.25 1525.53 1041.96 1526.68 1029.29 1530.68L1346.57 1533.32C1353.46 1531.11 1359.36 1526.39 1359.07 1521.29C1358.79 1516.18 1350.25 1512.04 1343.64 1514.57C1345.93 1514.68 1349.57 1501.57 1342.75 1496.14Z" fill="#587FC3"/>
<path d="M1485.39 1510.04C1481.82 1507.18 1475.32 1507.21 1469.68 1507.46C1470.07 1503.89 1471.57 1500.32 1472.04 1496.75C1472.39 1494.87 1472.2 1492.94 1471.5 1491.16C1470.8 1489.39 1469.61 1487.84 1468.07 1486.71C1461.86 1482.36 1450.89 1484.04 1442.32 1486.54C1443.5 1478.04 1434.46 1469.75 1422.36 1468.46C1410.25 1467.18 1396.79 1473.04 1393.25 1481.32C1388.36 1476.64 1378.54 1474.79 1370.39 1477C1362.25 1479.21 1356.43 1485.29 1356.86 1491.29C1350.57 1490.86 1343.61 1490.54 1338.43 1493.25C1330.79 1497.25 1331.29 1505.29 1325.46 1510.5C1323.56 1510.14 1321.6 1510.3 1319.78 1510.97C1317.96 1511.63 1316.36 1512.78 1315.14 1514.29C1313.61 1516.91 1312.41 1519.72 1311.57 1522.64C1309.14 1528.25 1300.86 1528.93 1293.21 1531.39L1487.68 1533C1491.89 1531.64 1495.5 1528.75 1495.36 1525.64C1495.21 1522.54 1489.93 1519.96 1485.89 1521.54C1487.32 1521.43 1489.57 1513.39 1485.39 1510.04Z" fill="#587FC3"/>
<path d="M699.928 893.071C691.162 887.059 680.918 883.559 670.306 882.949C659.693 882.34 649.116 884.644 639.719 889.613C630.322 894.582 622.462 902.026 616.991 911.14C611.52 920.254 608.645 930.691 608.678 941.321V941.678C606.905 939.405 604.669 937.532 602.12 936.185C599.571 934.837 596.765 934.044 593.887 933.859C591.01 933.673 588.125 934.099 585.424 935.108C582.722 936.117 580.265 937.687 578.214 939.714C576.991 928.042 571.339 917.283 562.422 909.653C553.506 902.022 542.003 898.101 530.282 898.695C518.561 899.29 507.515 904.357 499.416 912.851C491.318 921.345 486.785 932.621 486.75 944.357C484.838 943.007 482.614 942.164 480.287 941.909C477.96 941.654 475.606 941.993 473.447 942.897C471.287 943.8 469.392 945.237 467.94 947.072C466.487 948.908 465.525 951.083 465.143 953.392H789.678C789.677 945.561 787.43 937.894 783.204 931.3C778.979 924.706 772.952 919.461 765.837 916.188C758.722 912.914 750.818 911.748 743.061 912.829C735.305 913.91 728.02 917.192 722.071 922.285C720.106 916.658 717.3 911.359 713.75 906.571" stroke="#263238" stroke-linecap="round" stroke-linejoin="round"/>
<path d="M1257.64 465.929C1268.31 462.201 1279.72 461.082 1290.92 462.665C1302.11 464.248 1312.76 468.487 1321.98 475.029C1331.2 481.57 1338.72 490.223 1343.91 500.265C1349.1 510.307 1351.82 521.446 1351.82 532.751V533.179C1353.98 530.425 1356.69 528.157 1359.78 526.524C1362.87 524.891 1366.28 523.93 1369.77 523.704C1373.26 523.478 1376.76 523.992 1380.03 525.213C1383.31 526.433 1386.29 528.333 1388.79 530.786C1390.38 516.707 1397.28 503.764 1408.09 494.597C1418.89 485.429 1432.79 480.726 1446.94 481.445C1461.09 482.165 1474.43 488.253 1484.25 498.469C1494.07 508.685 1499.63 522.26 1499.79 536.429C1502.59 534.41 1505.97 533.334 1509.43 533.358C1513.41 533.348 1517.26 534.755 1520.3 537.326C1523.33 539.898 1525.36 543.467 1526 547.394H1132.18C1132.15 537.865 1134.86 528.53 1139.99 520.5C1145.12 512.471 1152.45 506.086 1161.11 502.107C1169.77 498.128 1179.39 496.723 1188.82 498.059C1198.26 499.396 1207.11 503.417 1214.32 509.644C1217.89 499.348 1223.78 490.012 1231.54 482.358" stroke="#263238" stroke-linecap="round" stroke-linejoin="round"/>
<path d="M49 383.715H442.821C442.85 374.186 440.137 364.851 435.007 356.821C429.877 348.792 422.546 342.407 413.888 338.428C405.23 334.449 395.61 333.044 386.176 334.38C376.742 335.717 367.891 339.738 360.679 345.965C355.207 330.159 344.312 316.802 329.928 308.266C315.544 299.73 298.6 296.566 282.105 299.336C265.61 302.106 250.629 310.631 239.822 323.397C229.015 336.163 223.08 352.346 223.071 369.072V369.5C220.916 366.746 218.204 364.478 215.111 362.845C212.018 361.212 208.615 360.251 205.125 360.025C201.635 359.799 198.137 360.313 194.859 361.534C191.582 362.754 188.599 364.654 186.107 367.108C184.513 353.028 177.61 340.085 166.805 330.918C156 321.75 142.107 317.047 127.955 317.766C113.804 318.486 100.459 324.574 90.6396 334.79C80.8204 345.006 75.2656 358.581 75.1071 372.75C72.2995 370.731 68.9228 369.655 65.4643 369.679C61.5035 369.694 57.6763 371.112 54.6621 373.682C51.6479 376.252 49.6418 379.806 49 383.715Z" fill="white" stroke="#263238" stroke-miterlimit="10"/>
<path d="M573.857 522.928L586.072 599.285" stroke="#587FC3" stroke-miterlimit="10"/>
<path d="M527.679 549.963L578.5 611.499" stroke="#587FC3" stroke-miterlimit="10"/>
<path d="M519.643 602.213L567.214 620.82" stroke="#587FC3" stroke-miterlimit="10"/>
<path d="M278.286 735.107V676.285" stroke="#263238" stroke-linecap="round" stroke-linejoin="round"/>
<path d="M139.786 735.105H278.286V691.713H139.786V735.105Z" fill="white" stroke="#263238" stroke-linecap="round" stroke-linejoin="round"/>
<path d="M139.786 735.107V676.285" stroke="#263238" stroke-linecap="round" stroke-linejoin="round"/>
<path d="M627.143 1530.89H907.072L907.072 1043.46H627.143V1530.89Z" fill="white" stroke="#263238" stroke-linecap="round" stroke-linejoin="round"/>
<path d="M348.107 1530.89H628.036L628.036 862.75H348.107L348.107 1530.89Z" fill="white" stroke="#263238" stroke-linecap="round" stroke-linejoin="round"/>
<path d="M66.8932 1530.93H346.822L346.822 733.928H66.8932L66.8932 1530.93Z" fill="white" stroke="#263238" stroke-linecap="round" stroke-linejoin="round"/>
<path d="M294.715 784.178V1500.71" stroke="#587FC3" stroke-linecap="round" stroke-linejoin="round"/>
<path d="M233.5 784.178V1500.71" stroke="#587FC3" stroke-linecap="round" stroke-linejoin="round"/>
<path d="M172.286 784.178V1500.71" stroke="#587FC3" stroke-linecap="round" stroke-linejoin="round"/>
<path d="M111.107 784.178V1500.71" stroke="#587FC3" stroke-linecap="round" stroke-linejoin="round"/>
<path d="M581.572 897.25V963.929V1030.57V1097.25V1163.89V1230.61V1297.29V1363.93V1430.61V1497.29V1498.57" stroke="#587FC3" stroke-linecap="round" stroke-linejoin="round"/>
<path d="M520.357 897.25V963.929V1030.57V1097.25V1163.89V1230.61V1297.29V1363.93V1430.61V1497.29V1498.57" stroke="#587FC3" stroke-linecap="round" stroke-linejoin="round"/>
<path d="M459.107 897.25V963.929V1030.57V1097.25V1163.89V1230.61V1297.29V1363.93V1430.61V1497.29V1498.57" stroke="#587FC3" stroke-linecap="round" stroke-linejoin="round"/>
<path d="M397.929 897.25V963.929V1030.57V1097.25V1163.89V1230.61V1297.29V1363.93V1430.61V1497.29V1498.57" stroke="#587FC3" stroke-linecap="round" stroke-linejoin="round"/>
<path d="M581.572 897.25H569.572H512.357H455.107H397.929" stroke="#587FC3" stroke-linecap="round" stroke-linejoin="round"/>
<path d="M581.572 963.928H569.572H512.357H455.107H397.929" stroke="#587FC3" stroke-linecap="round" stroke-linejoin="round"/>
<path d="M581.572 1030.57H569.572H512.357H455.107H397.929" stroke="#587FC3" stroke-linecap="round" stroke-linejoin="round"/>
<path d="M581.572 1097.25H569.572H512.357H455.107H397.929" stroke="#587FC3" stroke-linecap="round" stroke-linejoin="round"/>
<path d="M581.572 1163.89H569.572H512.357H455.107H397.929" stroke="#587FC3" stroke-linecap="round" stroke-linejoin="round"/>
<path d="M581.572 1230.61H569.572H512.357H455.107H397.929" stroke="#587FC3" stroke-linecap="round" stroke-linejoin="round"/>
<path d="M581.572 1297.29H569.572H512.357H455.107H397.929" stroke="#587FC3" stroke-linecap="round" stroke-linejoin="round"/>
<path d="M581.572 1363.93H569.572H512.357H455.107H397.929" stroke="#587FC3" stroke-linecap="round" stroke-linejoin="round"/>
<path d="M581.572 1430.61H569.572H512.357H455.107H397.929" stroke="#587FC3" stroke-linecap="round" stroke-linejoin="round"/>
<path d="M581.572 1497.29H569.572H512.357H455.107H397.929" stroke="#587FC3" stroke-linecap="round" stroke-linejoin="round"/>
<path d="M879.679 1083.68H668.072" stroke="#587FC3" stroke-linecap="round" stroke-linejoin="round"/>
<path d="M879.679 1150.36H668.072" stroke="#587FC3" stroke-linecap="round" stroke-linejoin="round"/>
<path d="M879.679 1217H668.072" stroke="#587FC3" stroke-linecap="round" stroke-linejoin="round"/>
<path d="M879.679 1283.68H668.072" stroke="#587FC3" stroke-linecap="round" stroke-linejoin="round"/>
<path d="M879.679 1350.36H668.072" stroke="#587FC3" stroke-linecap="round" stroke-linejoin="round"/>
<path d="M879.679 1417.04H668.072" stroke="#587FC3" stroke-linecap="round" stroke-linejoin="round"/>
<path d="M879.679 1483.68H668.072" stroke="#587FC3" stroke-linecap="round" stroke-linejoin="round"/>
<path d="M1526 1533H1398H1383.11H49" stroke="#263238" stroke-linecap="round" stroke-linejoin="round"/>
<path d="M535.322 1528.86C533.429 1529.75 519.679 1530.25 502.143 1530.54C466.429 1531.14 415.036 1530.86 415.036 1530.86C415.036 1530.86 412.25 1530.86 411.179 1516.93C410.107 1503 416.964 1491.93 417.75 1486.11C421.322 1459.39 412.214 1448.25 412.072 1446.29C411.929 1444.32 462.072 1443.21 462.072 1443.21L478.5 1442.11L474.929 1465.61C474.705 1466.94 474.586 1468.29 474.572 1469.64C474.232 1477.95 476.836 1486.12 481.926 1492.7C487.015 1499.28 494.263 1503.85 502.393 1505.61H503.143C504.322 1504.5 524.572 1495.14 532.857 1508.07C537.393 1515.11 535.322 1528.86 535.322 1528.86Z" fill="#263238"/>
<mask id="mask0_5406_1212" style="mask-type:luminance" maskUnits="userSpaceOnUse" x="411" y="1442" width="125" height="89">
<path d="M535.322 1528.86C533.429 1529.75 519.679 1530.25 502.143 1530.54C466.429 1531.14 415.036 1530.86 415.036 1530.86C415.036 1530.86 412.25 1530.86 411.179 1516.93C410.107 1503 416.964 1491.93 417.75 1486.11C421.322 1459.39 412.214 1448.25 412.072 1446.29C411.929 1444.32 462.072 1443.21 462.072 1443.21L478.5 1442.11L474.929 1465.61C474.705 1466.94 474.586 1468.29 474.572 1469.64C474.232 1477.95 476.836 1486.12 481.926 1492.7C487.015 1499.28 494.263 1503.85 502.393 1505.61H503.143C504.322 1504.5 524.572 1495.14 532.857 1508.07C537.393 1515.11 535.322 1528.86 535.322 1528.86Z" fill="white"/>
</mask>
<g mask="url(#mask0_5406_1212)">
<path opacity="0.2" d="M535.322 1528.86C533.429 1529.75 519.679 1530.25 502.143 1530.54C466.429 1531.14 415.036 1530.86 415.036 1530.86C415.036 1530.86 412.25 1530.86 411.179 1516.93C410.107 1503 416.964 1491.93 417.75 1486.11C421.322 1459.39 412.214 1448.25 412.072 1446.29C411.929 1444.32 462.072 1443.21 462.072 1443.21L478.5 1442.11L474.929 1465.61C474.705 1466.94 474.586 1468.29 474.572 1469.64C474.232 1477.95 476.836 1486.12 481.926 1492.7C487.015 1499.28 494.263 1503.85 502.393 1505.61H503.143C504.322 1504.5 524.572 1495.14 532.857 1508.07C537.393 1515.11 535.322 1528.86 535.322 1528.86Z" fill="white"/>
<path opacity="0.3" d="M502.143 1530.61C466.429 1531.22 415.036 1530.93 415.036 1530.93C415.036 1530.93 412.25 1530.93 411.179 1517C410.107 1503.07 416.964 1492 417.75 1486.18C421.322 1459.47 412.214 1448.32 412.072 1446.36C411.929 1444.39 462.072 1443.29 462.072 1443.29L478.5 1442.18L474.929 1465.68C474.705 1467.01 474.586 1468.36 474.572 1469.72C463.25 1479.07 454.25 1486.61 454.25 1486.61C454.25 1486.61 500.143 1501.75 502.143 1530.61Z" fill="black"/>
</g>
<path d="M535.322 1528.86C533.429 1529.75 519.679 1530.25 502.143 1530.54C466.429 1531.14 415.036 1530.86 415.036 1530.86C415.036 1530.86 412.25 1530.86 411.179 1516.93C410.107 1503 416.964 1491.93 417.75 1486.11C421.322 1459.39 412.214 1448.25 412.072 1446.29C411.929 1444.32 462.072 1443.21 462.072 1443.21L478.5 1442.11L474.929 1465.61C474.705 1466.94 474.586 1468.29 474.572 1469.64C474.232 1477.95 476.836 1486.12 481.926 1492.7C487.015 1499.28 494.263 1503.85 502.393 1505.61H503.143C504.322 1504.5 524.572 1495.14 532.857 1508.07C537.393 1515.11 535.322 1528.86 535.322 1528.86Z" stroke="#263238" stroke-linecap="round" stroke-linejoin="round"/>
<path d="M489.357 1411.39C491.036 1420.36 495.214 1422.89 492.5 1427.11C492.107 1427.75 491.714 1428.5 491.321 1429.29C489.214 1433.64 486.964 1439.79 478.679 1442.11C468.929 1444.86 422.25 1447.39 412.179 1446.14C402.107 1444.89 396.393 1435.43 395.822 1427.43C395.25 1419.43 399.607 1414.43 398.929 1405.47C398.25 1396.5 391.25 1393.89 390.786 1387.93C390.322 1381.97 396.107 1373.29 396.036 1367.32C396.036 1354.75 396.25 1368.47 398.75 1297C400.143 1256.25 410 1247.39 398.75 1201.18C394.679 1184.5 350.964 882.537 350.964 882.537L485.786 890.608C485.786 890.608 487.929 942.037 490.357 1002.79C493.429 1080.07 496.964 1172.43 497.071 1193.22C497.286 1235.43 493.5 1294.57 490.321 1347.07C489 1369.47 486.75 1384.89 490.321 1393.5C490.745 1394.4 490.999 1395.37 491.072 1396.36C491.679 1402.04 487.643 1402.43 489.357 1411.39Z" fill="#587FC3"/>
<mask id="mask1_5406_1212" style="mask-type:luminance" maskUnits="userSpaceOnUse" x="350" y="882" width="148" height="565">
<path d="M489.357 1411.39C491.036 1420.36 495.214 1422.89 492.5 1427.11C492.107 1427.75 491.714 1428.5 491.321 1429.29C489.214 1433.64 486.964 1439.79 478.679 1442.11C468.929 1444.86 422.25 1447.39 412.179 1446.14C402.107 1444.89 396.393 1435.43 395.822 1427.43C395.25 1419.43 399.607 1414.43 398.929 1405.47C398.25 1396.5 391.25 1393.89 390.786 1387.93C390.322 1381.97 396.107 1373.29 396.036 1367.32C396.036 1354.75 396.25 1368.47 398.75 1297C400.143 1256.25 410 1247.39 398.75 1201.18C394.679 1184.5 350.964 882.537 350.964 882.537L485.786 890.608C485.786 890.608 487.929 942.037 490.357 1002.79C493.429 1080.07 496.964 1172.43 497.071 1193.22C497.286 1235.43 493.5 1294.57 490.321 1347.07C489 1369.47 486.75 1384.89 490.321 1393.5C490.745 1394.4 490.999 1395.37 491.072 1396.36C491.679 1402.04 487.643 1402.43 489.357 1411.39Z" fill="white"/>
</mask>
<g mask="url(#mask1_5406_1212)">
<path opacity="0.3" d="M491.321 1429.29C489.214 1433.64 486.964 1439.79 478.679 1442.11C468.929 1444.86 422.25 1447.39 412.179 1446.14C402.107 1444.89 396.393 1435.43 395.822 1427.43C395.25 1419.43 399.607 1414.43 398.929 1405.47C398.25 1396.5 391.25 1393.89 390.786 1387.93C390.322 1381.97 396.107 1373.29 396.036 1367.32C396.036 1354.75 396.25 1368.47 398.75 1297C400.143 1256.25 410 1247.39 398.75 1201.18C394.679 1184.5 350.964 882.537 350.964 882.537L485.786 890.608C485.786 890.608 487.929 942.037 490.357 1002.79C474.107 1070.36 455.25 1144.72 448.179 1157.22L459.322 1176.68C459.322 1176.68 432.679 1238.5 432.679 1245.97C432.679 1253.43 441.679 1323.25 444.786 1337.75C447.893 1352.25 432.679 1341.93 432.679 1354.14C432.679 1365.39 431.464 1420.14 491.321 1429.29Z" fill="black"/>
</g>
<path d="M489.357 1411.39C491.036 1420.36 495.214 1422.89 492.5 1427.11C492.107 1427.75 491.714 1428.5 491.321 1429.29C489.214 1433.64 486.964 1439.79 478.679 1442.11C468.929 1444.86 422.25 1447.39 412.179 1446.14C402.107 1444.89 396.393 1435.43 395.822 1427.43C395.25 1419.43 399.607 1414.43 398.929 1405.47C398.25 1396.5 391.25 1393.89 390.786 1387.93C390.322 1381.97 396.107 1373.29 396.036 1367.32C396.036 1354.75 396.25 1368.47 398.75 1297C400.143 1256.25 410 1247.39 398.75 1201.18C394.679 1184.5 350.964 882.537 350.964 882.537L485.786 890.608C485.786 890.608 487.929 942.037 490.357 1002.79C493.429 1080.07 496.964 1172.43 497.071 1193.22C497.286 1235.43 493.5 1294.57 490.321 1347.07C489 1369.47 486.75 1384.89 490.321 1393.5C490.745 1394.4 490.999 1395.37 491.072 1396.36C491.679 1402.04 487.643 1402.43 489.357 1411.39Z" stroke="#263238" stroke-linecap="round" stroke-linejoin="round"/>
<path d="M479.036 988.215C479.036 988.215 462.5 1002.5 448.393 999.929" stroke="#263238" stroke-linecap="round" stroke-linejoin="round"/>
<path d="M477.393 1015.21C477.393 1015.21 449.536 1008.5 446.357 1002.86" stroke="#263238" stroke-linecap="round" stroke-linejoin="round"/>
<path d="M441.679 1142.46C441.679 1142.46 456.714 1181.75 473.429 1191.25" stroke="#263238" stroke-linecap="round" stroke-linejoin="round"/>
<path d="M474.179 1403.21C474.179 1403.21 440.786 1413.54 424.179 1406C407.572 1398.46 437.286 1423.25 468.5 1421.07" stroke="#263238" stroke-linecap="round" stroke-linejoin="round"/>
<path d="M426.893 1225.11C426.893 1225.11 427.179 1329.57 454.429 1350.36" stroke="#263238" stroke-linecap="round" stroke-linejoin="round"/>
<path d="M454.893 1459.36C461.336 1456.79 468.175 1455.35 475.107 1455.11" stroke="#263238" stroke-linecap="round" stroke-linejoin="round"/>
<path d="M455.5 1472.89C455.5 1472.89 465.179 1469.32 472.179 1467.89" stroke="#263238" stroke-linecap="round" stroke-linejoin="round"/>
<path d="M457.322 1485.86L472.929 1481.18" stroke="#263238" stroke-linecap="round" stroke-linejoin="round"/>
<path d="M464.929 1496.47L477.75 1491.43" stroke="#263238" stroke-linecap="round" stroke-linejoin="round"/>
<path d="M479.464 1505.57L486.929 1499.82" stroke="#263238" stroke-linecap="round" stroke-linejoin="round"/>
<path d="M458.107 1446.46C458.107 1446.46 456.857 1482.18 468.143 1493.93C479.429 1505.68 491.393 1505.93 490.357 1510.43" stroke="#263238" stroke-linecap="round" stroke-linejoin="round"/>
<path d="M355.143 1442.29C355.143 1442.29 304.643 1443.32 304.464 1445.32C304.286 1447.32 311.607 1458.43 303.286 1485.11C301.5 1490.93 292.571 1501.97 291.429 1515.86C290.286 1529.75 292.893 1529.75 292.893 1529.75C292.893 1529.75 407.179 1530.39 413.5 1527.79C413.5 1527.79 417.929 1514.07 414.679 1507.25C408.25 1493.72 384.643 1504.64 385.393 1504.79H384.643C367.036 1500.89 358.179 1483.36 364.179 1464.79L371.786 1441.32L355.143 1442.29Z" fill="#263238"/>
<mask id="mask2_5406_1212" style="mask-type:luminance" maskUnits="userSpaceOnUse" x="291" y="1441" width="125" height="89">
<path d="M355.143 1442.29C355.143 1442.29 304.643 1443.32 304.464 1445.32C304.286 1447.32 311.607 1458.43 303.286 1485.11C301.5 1490.93 292.571 1501.97 291.429 1515.86C290.286 1529.75 292.893 1529.75 292.893 1529.75C292.893 1529.75 407.179 1530.39 413.5 1527.79C413.5 1527.79 417.929 1514.07 414.679 1507.25C408.25 1493.72 384.643 1504.64 385.393 1504.79H384.643C367.036 1500.89 358.179 1483.36 364.179 1464.79L371.786 1441.32L355.143 1442.29Z" fill="white"/>
</mask>
<g mask="url(#mask2_5406_1212)">
<path opacity="0.25" d="M355.143 1442.29C355.143 1442.29 304.643 1443.32 304.464 1445.32C304.286 1447.32 311.607 1458.43 303.286 1485.11C301.5 1490.93 292.571 1501.97 291.429 1515.86C290.286 1529.75 292.893 1529.75 292.893 1529.75C292.893 1529.75 407.179 1530.39 413.5 1527.79C413.5 1527.79 417.929 1514.07 414.679 1507.25C408.25 1493.72 384.643 1504.64 385.393 1504.79H384.643C367.036 1500.89 358.179 1483.36 364.179 1464.79L371.786 1441.32L355.143 1442.29Z" fill="white"/>
</g>
<path d="M355.143 1442.29C355.143 1442.29 304.643 1443.32 304.464 1445.32C304.286 1447.32 311.607 1458.43 303.286 1485.11C301.5 1490.93 292.571 1501.97 291.429 1515.86C290.286 1529.75 292.893 1529.75 292.893 1529.75C292.893 1529.75 407.179 1530.39 413.5 1527.79C413.5 1527.79 417.929 1514.07 414.679 1507.25C408.25 1493.72 384.643 1504.64 385.393 1504.79H384.643C367.036 1500.89 358.179 1483.36 364.179 1464.79L371.786 1441.32L355.143 1442.29Z" stroke="#263238" stroke-linecap="round" stroke-linejoin="round"/>
<path d="M473.822 890.608L340.393 882.537C340.393 882.537 332.214 1184 333.25 1200.64C336.572 1246.79 325.214 1255.61 316.786 1296.32C302 1367.75 304 1353.97 302 1366.5C301.036 1372.47 293.75 1381.14 293.179 1387.11C292.607 1393.07 299.179 1395.68 298.322 1404.61C297.464 1413.54 292.179 1418.61 291.429 1426.54C290.679 1434.47 294.714 1443.97 304.572 1445.22C314.429 1446.47 361.714 1443.93 371.786 1441.18C381.857 1438.43 384.75 1430.47 388.179 1426.22C391.607 1421.97 387.893 1419.47 387.714 1410.5C387.536 1401.54 391.572 1401.29 392.107 1395.43C392.205 1394.47 392.12 1393.5 391.857 1392.57C389.679 1384.04 394.607 1368.64 399.75 1346.14C411.893 1293.75 425.929 1234.68 432.929 1192.57C436.5 1171.57 449.036 1077.5 459.322 999.716C459.322 999.716 469.179 983.823 474.179 953.037" fill="#587FC3"/>
<mask id="mask3_5406_1212" style="mask-type:luminance" maskUnits="userSpaceOnUse" x="291" y="882" width="184" height="564">
<path d="M473.822 890.608L340.393 882.537C340.393 882.537 332.214 1184 333.25 1200.64C336.572 1246.79 325.214 1255.61 316.786 1296.32C302 1367.75 304 1353.97 302 1366.5C301.036 1372.47 293.75 1381.14 293.179 1387.11C292.607 1393.07 299.179 1395.68 298.322 1404.61C297.464 1413.54 292.179 1418.61 291.429 1426.54C290.679 1434.47 294.714 1443.97 304.572 1445.22C314.429 1446.47 361.714 1443.93 371.786 1441.18C381.857 1438.43 384.75 1430.47 388.179 1426.22C391.607 1421.97 387.893 1419.47 387.714 1410.5C387.536 1401.54 391.572 1401.29 392.107 1395.43C392.205 1394.47 392.12 1393.5 391.857 1392.57C389.679 1384.04 394.607 1368.64 399.75 1346.14C411.893 1293.75 425.929 1234.68 432.929 1192.57C436.5 1171.57 449.036 1077.5 459.322 999.716C459.322 999.716 469.179 983.823 474.179 953.037" fill="white"/>
</mask>
<g mask="url(#mask3_5406_1212)">
<path opacity="0.3" d="M339.964 893.002L338.786 938.038C361.368 939.87 384.061 939.87 406.643 938.038C450.714 934.109 477.536 914.574 477.536 914.574L473.964 890.609C473.964 890.609 423.964 904.074 399.357 902.181C374.75 900.288 351.179 897.324 339.964 893.002Z" fill="black"/>
</g>
<path d="M473.822 890.608L340.393 882.537C340.393 882.537 332.214 1184 333.25 1200.64C336.572 1246.79 325.214 1255.61 316.786 1296.32C302 1367.75 304 1353.97 302 1366.5C301.036 1372.47 293.75 1381.14 293.179 1387.11C292.607 1393.07 299.179 1395.68 298.322 1404.61C297.464 1413.54 292.179 1418.61 291.429 1426.54C290.679 1434.47 294.714 1443.97 304.572 1445.22C314.429 1446.47 361.714 1443.93 371.786 1441.18C381.857 1438.43 384.75 1430.47 388.179 1426.22C391.607 1421.97 387.893 1419.47 387.714 1410.5C387.536 1401.54 391.572 1401.29 392.107 1395.43C392.205 1394.47 392.12 1393.5 391.857 1392.57C389.679 1384.04 394.607 1368.64 399.75 1346.14C411.893 1293.75 425.929 1234.68 432.929 1192.57C436.5 1171.57 449.036 1077.5 459.322 999.716C459.322 999.716 469.179 983.823 474.179 953.037" stroke="#263238" stroke-linecap="round" stroke-linejoin="round"/>
<path d="M407.893 1255.21C407.893 1255.21 361.75 1333.79 316.214 1359.46" stroke="#263238" stroke-linecap="round" stroke-linejoin="round"/>
<path d="M315.429 1403.21L364.964 1409.46C368.536 1409.93 373.143 1411.36 372.786 1415.14C372.429 1418.93 368.607 1420.64 365.322 1421.82C354.292 1425.94 342.303 1426.74 330.822 1424.14" stroke="#263238" stroke-linecap="round" stroke-linejoin="round"/>
<path d="M316.893 1379.39C334.687 1389.6 354.776 1395.13 375.286 1395.47" stroke="#263238" stroke-linecap="round" stroke-linejoin="round"/>
<path d="M347.964 1236.39C347.964 1236.39 372.964 1237.36 385.821 1236.21C376.286 1249.29 360.821 1254.96 345.893 1255.71" stroke="#263238" stroke-linecap="round" stroke-linejoin="round"/>
<path d="M366.679 919.895C366.679 919.895 363.107 1048.25 361.821 1101.64C360.536 1155.04 358.25 1217.29 358.25 1217.29C357.038 1219.19 356.215 1221.32 355.829 1223.54C355.443 1225.77 355.501 1228.05 356 1230.25L358 1236.82L356.929 1255.36C355.494 1257.04 354.451 1259.03 353.877 1261.16C353.302 1263.3 353.21 1265.54 353.607 1267.72C355.321 1274.47 341.464 1321.5 341.464 1321.5L339.071 1324.61C336.624 1327.54 334.987 1331.06 334.322 1334.82C333.658 1338.58 333.99 1342.45 335.286 1346.04L330.321 1386.32C327.653 1388.51 325.864 1391.58 325.287 1394.98C324.709 1398.38 325.381 1401.88 327.179 1404.82L322.536 1425.82C320.18 1427.82 318.605 1430.58 318.089 1433.63C317.573 1436.67 318.149 1439.8 319.714 1442.47L320.5 1443.64" stroke="#263238" stroke-linecap="round" stroke-linejoin="round"/>
<path d="M597.786 683.178C594.214 691 563.786 711.75 563.786 711.75C563.758 708.323 564.49 704.932 565.929 701.821C568.107 698.464 569.5 695.25 570.893 693.25C571.252 687.827 569.47 682.48 565.929 678.357C561.786 673.75 558.536 685.25 556.714 692.893C554.893 700.536 542.964 712.178 543.5 717.893C544.536 724.464 545.857 730.928 547.536 737.357C547.536 737.357 496.643 755.214 491.036 744.5C479.163 721.483 466.048 699.129 451.75 677.536C439.786 694.25 449.214 717.321 455.964 745.678C462.714 774.036 483.5 813.75 483.5 813.75C520.714 795.893 563 749.464 563 749.464C563 749.464 572.929 745.036 585.214 740.821C597.5 736.607 595.714 733 597.679 720.928C599.643 708.857 609.964 692.357 609.357 686.143C608.75 679.928 601.429 675.393 597.786 683.178Z" fill="white" stroke="#263238" stroke-linecap="round" stroke-linejoin="round"/>
<path d="M477.393 743.501C476.929 769.358 482.036 857.036 487.572 891.822L336.107 888.001V885.465C347.214 844.322 340 799.751 322.464 761.072C313.179 740.536 309.036 714.286 304.25 689.429C292.072 626.143 322.643 606.536 348.179 604.108C358.036 603.643 358.893 596.965 366.036 597.501C370.966 598.099 375.968 597.486 380.607 595.715C383.786 608.679 401.393 646.751 407.429 651.108C410.36 653.422 413.919 654.802 417.645 655.069C421.37 655.337 425.089 654.479 428.322 652.608C434.393 648.358 436.072 640.251 437.464 632.965C438.092 629.016 439.22 625.164 440.822 621.501C449.75 625.965 465.322 631.251 476.893 652.072C491.179 698.036 483.322 668.572 494.322 736.001C496.214 746.322 477.393 743.501 477.393 743.501Z" fill="white" stroke="#263238" stroke-linecap="round" stroke-linejoin="round"/>
<path d="M453.572 623.857L438.929 618.75C448.857 652.857 440.25 691.607 415.143 676.286C390.036 660.965 380.071 616.929 372.571 597.715C368.643 596.5 352.679 595.929 344.393 602.286C353.036 618.107 376.536 649.536 373.786 675.072C370.643 703.643 348.179 729 306.214 700.286C311.929 743.572 330.072 774.786 333.572 789.572C346.357 843.143 337.821 850.465 331.857 903.322C392.571 934.286 466.036 918.893 498.214 909.465C488.393 855.607 492.714 719.893 453.572 623.857Z" fill="#587FC3"/>
<mask id="mask4_5406_1212" style="mask-type:luminance" maskUnits="userSpaceOnUse" x="306" y="596" width="193" height="326">
<path d="M453.572 623.857L438.929 618.75C448.857 652.857 440.25 691.607 415.143 676.286C390.036 660.965 380.071 616.929 372.571 597.715C368.643 596.5 352.679 595.929 344.393 602.286C353.036 618.107 376.536 649.536 373.786 675.072C370.643 703.643 348.179 729 306.214 700.286C311.929 743.572 330.072 774.786 333.572 789.572C346.357 843.143 337.821 850.465 331.857 903.322C392.571 934.286 466.036 918.893 498.214 909.465C488.393 855.607 492.714 719.893 453.572 623.857Z" fill="white"/>
</mask>
<g mask="url(#mask4_5406_1212)">
<path opacity="0.3" d="M361.036 851.215C361.036 851.215 460.072 894.429 474.179 852.465C448.183 858.11 421.407 859.21 395.036 855.715L361.036 851.215Z" fill="black"/>
<path opacity="0.3" d="M325.929 757.715L397.893 700.572C397.893 700.572 412.179 739.858 373.893 762.394C348 777.644 325.929 757.715 325.929 757.715Z" fill="black"/>
</g>
<path d="M453.572 623.857L438.929 618.75C448.857 652.857 440.25 691.607 415.143 676.286C390.036 660.965 380.071 616.929 372.571 597.715C368.643 596.5 352.679 595.929 344.393 602.286C353.036 618.107 376.536 649.536 373.786 675.072C370.643 703.643 348.179 729 306.214 700.286C311.929 743.572 330.072 774.786 333.572 789.572C346.357 843.143 337.821 850.465 331.857 903.322C392.571 934.286 466.036 918.893 498.214 909.465C488.393 855.607 492.714 719.893 453.572 623.857Z" stroke="#263238" stroke-linecap="round" stroke-linejoin="round"/>
<path d="M474.179 851.072C473.56 853.761 472.334 856.273 470.595 858.415C468.855 860.557 466.648 862.273 464.143 863.429" stroke="#263238" stroke-linecap="round" stroke-linejoin="round"/>
<path d="M448.179 867.286C418.057 870.029 387.785 863.975 361.036 849.857" stroke="#263238" stroke-linecap="round" stroke-linejoin="round"/>
<path d="M586.964 625.251L555.964 707.929C555.415 709.404 555.209 710.985 555.364 712.551C555.519 714.117 556.03 715.627 556.857 716.965L562.607 726.179C565.429 730.715 575.393 732.072 579.679 729.144C581.245 728.091 582.483 726.618 583.25 724.894L613.822 642.287C614.614 640.398 614.826 638.316 614.432 636.307C614.038 634.297 613.054 632.45 611.607 631.001L601.965 621.679C601.091 620.806 600.047 620.123 598.898 619.672C597.748 619.221 596.518 619.012 595.284 619.059C594.05 619.106 592.839 619.408 591.727 619.944C590.615 620.481 589.626 621.242 588.822 622.179C588.02 623.081 587.39 624.122 586.964 625.251Z" fill="#263238"/>
<path d="M306.143 647.5C306.883 659.839 309.86 671.94 314.929 683.214C329.822 718.643 386.679 806.821 399.143 812.786C411.607 818.75 539 750.179 548.214 740.786C550.834 737.86 552.599 734.271 553.317 730.41C554.035 726.549 553.679 722.565 552.286 718.893C552.286 718.893 552.107 727.679 559.607 726.036C564.322 725 560.429 710.429 560.429 710.429C560.429 710.429 569.072 704.321 560.822 693.036C560.822 693.036 572.464 693.036 571.536 684.25C571.214 680.679 536.929 680.214 531.679 690.107C525.286 702.107 518.929 733.393 518.929 733.393C518.929 733.393 435.929 754.821 418.715 758L373.822 659.536" fill="white"/>
<path d="M306.143 647.5C306.883 659.839 309.86 671.94 314.929 683.214C329.822 718.643 386.679 806.821 399.143 812.786C411.607 818.75 539 750.179 548.214 740.786C550.834 737.86 552.599 734.271 553.317 730.41C554.035 726.549 553.679 722.565 552.286 718.893C552.286 718.893 552.107 727.679 559.607 726.036C564.322 725 560.429 710.429 560.429 710.429C560.429 710.429 569.072 704.321 560.822 693.036C560.822 693.036 572.464 693.036 571.536 684.25C571.214 680.679 536.929 680.214 531.679 690.107C525.286 702.107 518.929 733.393 518.929 733.393C518.929 733.393 435.929 754.821 418.715 758L373.822 659.536" stroke="#263238" stroke-linecap="round" stroke-linejoin="round"/>
<path d="M549.536 746.107C552.123 739.588 556.585 733.983 562.357 730C569.071 726.822 578.321 725.822 585.643 724.429C585.643 724.429 591.357 700.214 594.464 700.893C603.929 702.857 596.536 725.107 596.536 725.107" fill="white"/>
<path d="M549.536 746.107C552.123 739.588 556.585 733.983 562.357 730C569.071 726.822 578.321 725.822 585.643 724.429C585.643 724.429 591.357 700.214 594.464 700.893C603.929 702.857 596.536 725.107 596.536 725.107" stroke="#263238" stroke-linecap="round" stroke-linejoin="round"/>
<path d="M607.929 692.179C606.707 690.958 605.071 690.239 603.345 690.166C601.618 690.094 599.927 690.672 598.607 691.787C594 695.965 587 707.787 579.536 714.108" stroke="#263238" stroke-linecap="round" stroke-linejoin="round"/>
<path d="M541.679 717.608C543.714 713.108 558.179 705.501 561.036 715.251" stroke="#263238" stroke-linecap="round" stroke-linejoin="round"/>
<path d="M541.679 705.609C541.679 705.609 558.429 696.466 561.786 707.787" stroke="#263238" stroke-linecap="round" stroke-linejoin="round"/>
<path d="M543.786 694.895C543.786 694.895 550.75 693.537 552.286 693.395C557.821 692.859 563.857 692.145 566.857 692.145" stroke="#263238" stroke-linecap="round" stroke-linejoin="round"/>
<path d="M459.321 999.929C459.321 999.929 437 980.25 424.036 976.5Z" fill="#587FC3"/>
<path d="M459.321 999.929C459.321 999.929 437 980.25 424.036 976.5" stroke="#263238" stroke-linecap="round" stroke-linejoin="round"/>
<path d="M346.607 1459.57C353.187 1456.99 360.152 1455.53 367.214 1455.25" stroke="#263238" stroke-linecap="round" stroke-linejoin="round"/>
<path d="M346.107 1473.46C346.107 1473.46 356.071 1469.89 363.179 1468.36" stroke="#263238" stroke-linecap="round" stroke-linejoin="round"/>
<path d="M346.786 1486.5L362.786 1481.79" stroke="#263238" stroke-linecap="round" stroke-linejoin="round"/>
<path d="M353.464 1497.29L366.75 1492.18" stroke="#263238" stroke-linecap="round" stroke-linejoin="round"/>
<path d="M367.214 1506.54L375.179 1500.71" stroke="#263238" stroke-linecap="round" stroke-linejoin="round"/>
<path d="M350.964 1446.46C350.964 1446.46 346.607 1482.89 356.929 1494.71C367.25 1506.54 379.107 1506.89 377.714 1511.5" stroke="#263238" stroke-linecap="round" stroke-linejoin="round"/>
<path d="M437.536 617.287C437.536 617.287 452.607 676.037 428.429 680.501C395.464 686.573 372.572 597.608 372.572 597.608C377.607 597.287 378.214 595.18 382.607 592.68C382.607 592.68 419.429 666.323 437.536 617.287Z" fill="#263238"/>
<path d="M337.286 606.143C337.286 606.143 302.821 612.965 302.714 664.215C302.607 715.465 325.321 758.143 325.321 758.143C325.321 758.143 352.214 755.965 369.214 743.5C404.929 717.429 399.143 702.786 399.143 702.786L380.429 665.715C380.429 665.715 374.286 641.965 347.571 604.107L337.286 606.143Z" fill="#263238"/>
<path d="M455.679 625.895C474.464 679.216 475.322 699.18 478.714 723.787C478.714 723.787 497.107 720.216 499.929 716.145C499.929 716.145 491 672.502 481.357 649.93C475.214 635.609 467.143 630.609 455.679 625.895Z" fill="#263238"/>
<path d="M437.5 565.358C437.5 565.358 434.821 614.215 435 618.143C435.321 625.536 440.679 635.358 435.75 640.893C433.032 643.454 429.608 645.14 425.921 645.732C422.234 646.325 418.454 645.796 415.071 644.215C408.372 640.884 402.576 635.983 398.179 629.929C389.708 619.554 382.358 608.313 376.25 596.393C380.336 592.461 383.338 587.541 384.964 582.108C384.964 582.108 385.929 577.965 385.964 577.751C387.209 567.684 387.077 557.495 385.571 547.465C383.863 535.053 380.981 522.832 376.964 510.965L437.5 565.358Z" fill="white" stroke="#263238" stroke-linecap="round" stroke-linejoin="round"/>
<path d="M386.714 612C395.168 614.76 403.365 618.25 411.214 622.429Z" fill="#263238"/>
<path d="M386.714 612C395.168 614.76 403.365 618.25 411.214 622.429" stroke="#263238" stroke-linecap="round" stroke-linejoin="round"/>
<path d="M379.25 447.179C379.25 447.179 348.821 464.572 364.571 509.965C380.321 555.358 415.429 606.072 447.25 599.251C479.071 592.429 487.321 529.215 470.5 487.072C453.679 444.929 410.821 421.608 379.25 447.179Z" fill="white" stroke="#263238" stroke-linecap="round" stroke-linejoin="round"/>
<path d="M470 530.965C470.214 534.536 468.75 537.822 466.75 538.107C464.75 538.393 462.929 535.25 462.714 531.536C462.5 527.822 463.893 524.715 465.964 524.572C468.036 524.429 469.786 527.215 470 530.965Z" fill="#263238"/>
<path d="M438.964 529.502C439.179 533.073 437.75 536.323 435.786 536.466C433.822 536.609 431.929 533.609 431.714 529.93C431.5 526.252 432.929 523.073 434.964 522.787C437 522.502 438.714 525.716 438.964 529.502Z" fill="#263238"/>
<path d="M450.643 455.002C430.25 435.144 402.5 429.002 380.286 446.966C380.286 446.966 349.893 464.359 365.643 509.787C369.46 520.616 374.08 531.146 379.464 541.287L380.036 541.787C380.036 541.787 370.036 531.823 409.714 509.894C422.75 502.537 442 456.644 450.643 455.002Z" fill="#263238" stroke="#263238" stroke-linecap="round" stroke-linejoin="round"/>
<path d="M418.786 469.893C418.786 469.893 421.571 438.286 443.571 437.215C455.036 436.643 470.179 452.036 472.143 460.143C473.375 465.633 476.173 470.647 480.199 474.577C484.225 478.508 489.304 481.186 494.821 482.286C494.821 482.286 488.464 503.715 476.071 505.286C455.607 507.786 445 503 431.786 484.965C428.096 479.728 423.935 474.839 419.357 470.358L418.786 469.893Z" fill="#263238" stroke="#263238" stroke-linecap="round" stroke-linejoin="round"/>
<path d="M386.036 530.608C386.036 530.608 374 505.822 363.286 533.108C356.607 550.108 383.321 563.715 392.464 559.215" fill="white"/>
<path d="M386.036 530.608C386.036 530.608 374 505.822 363.286 533.108C356.607 550.108 383.321 563.715 392.464 559.215" stroke="#263238" stroke-linecap="round" stroke-linejoin="round"/>
<path d="M457.679 515.572C455.652 517.814 454.188 520.504 453.406 523.423C452.623 526.341 452.545 529.404 453.179 532.358C454.103 538.843 456.3 545.082 459.643 550.715L444.357 555.608" stroke="#263238" stroke-linecap="round" stroke-linejoin="round"/>
<path d="M430.964 566.787C433.367 569.185 436.404 570.848 439.719 571.582C443.033 572.316 446.488 572.09 449.679 570.93" stroke="#263238" stroke-linecap="round" stroke-linejoin="round"/>
<path d="M413.857 515.143C413.857 515.143 424.571 503.286 437.5 509" stroke="#263238" stroke-linecap="round" stroke-linejoin="round"/>
<path d="M463.572 512C463.572 512 477.607 507.607 475.822 520" stroke="#263238" stroke-linecap="round" stroke-linejoin="round"/>
<path d="M385.786 544.179C384.544 544.221 383.32 543.866 382.293 543.166C381.266 542.466 380.488 541.458 380.072 540.287C379.036 538.037 378.75 535.465 377.714 533.144C377.287 531.973 376.501 530.966 375.469 530.267C374.437 529.569 373.21 529.213 371.964 529.251" fill="#263238"/>
<path d="M385.786 544.179C384.544 544.221 383.32 543.866 382.293 543.166C381.266 542.466 380.488 541.458 380.072 540.287C379.036 538.037 378.75 535.465 377.714 533.144C377.287 531.973 376.501 530.966 375.469 530.267C374.437 529.569 373.21 529.213 371.964 529.251" stroke="#263238" stroke-linecap="round" stroke-linejoin="round"/>
<path d="M430.322 446.215C428.805 439.828 426.401 433.685 423.179 427.965C423.179 427.965 429 426.501 432.214 425.822C431.5 432.072 430.964 439.929 430.322 446.215Z" fill="#263238" stroke="#263238" stroke-linecap="round" stroke-linejoin="round"/>
<path d="M436.429 597.893L436.679 608.608C434.325 609.647 431.723 609.994 429.179 609.608C415.464 608.001 401.643 577.465 400.786 575.715L401.072 576.036C417.286 593.929 429.322 597.786 436.429 597.893Z" fill="#263238"/>
<path d="M899.75 700.68H990" stroke="#263238" stroke-linecap="round" stroke-linejoin="round"/>
<path d="M796.214 700.68H887.857" stroke="#263238" stroke-linecap="round" stroke-linejoin="round"/>
<path d="M747.393 700.68H775.571" stroke="#263238" stroke-linecap="round" stroke-linejoin="round"/>
<path d="M821.5 749.68H989.643" stroke="#263238" stroke-linecap="round" stroke-linejoin="round"/>
<path d="M775.571 749.68H796.214" stroke="#263238" stroke-linecap="round" stroke-linejoin="round"/>
<path d="M896.75 798.715H989.286" stroke="#263238" stroke-linecap="round" stroke-linejoin="round"/>
<path d="M803.75 798.715H883.071" stroke="#263238" stroke-linecap="round" stroke-linejoin="round"/>
<path d="M884.071 847.715H988.928" stroke="#263238" stroke-linecap="round" stroke-linejoin="round"/>
<path d="M831.928 847.715H869.179" stroke="#263238" stroke-linecap="round" stroke-linejoin="round"/>
<path d="M1192.43 849.501H929.643L942.821 698.822H1205.61L1192.43 849.501Z" fill="white" stroke="#263238" stroke-linecap="round" stroke-linejoin="round"/>
<path d="M1205.61 698.857H942.821" stroke="#263238" stroke-linecap="round" stroke-linejoin="round"/>
<path d="M1192.43 849.501H929.643L1019.46 764.215L1065.11 803.108L1118.54 763.465L1192.43 849.501Z" fill="white" stroke="#263238" stroke-linecap="round" stroke-linejoin="round"/>
<path d="M1205.61 698.822L1118.54 763.465L1065.11 803.108L1019.46 764.215L942.821 698.822H1205.61Z" fill="white" stroke="#263238" stroke-linecap="round" stroke-linejoin="round"/>
<path d="M722.25 700.68H656.286" stroke="#263238" stroke-linecap="round" stroke-linejoin="round"/>
<path d="M975 528.07C922.357 570.927 825.178 597.106 825.178 597.106L874.143 544.642C850.257 536.951 829.646 521.463 815.615 500.659C801.584 479.856 794.945 454.944 796.763 429.917C798.581 404.89 808.751 381.198 825.641 362.641C842.532 344.084 865.165 331.737 889.911 327.58C914.657 323.422 940.082 327.695 962.11 339.713C984.138 351.731 1001.49 370.798 1011.39 393.857C1021.29 416.915 1023.15 442.629 1016.69 466.876C1010.23 491.122 995.811 512.496 975.75 527.57" fill="white"/>
<path d="M975 528.07C922.357 570.927 825.178 597.106 825.178 597.106L874.143 544.642C850.257 536.951 829.646 521.463 815.615 500.659C801.584 479.856 794.945 454.944 796.763 429.917C798.581 404.89 808.751 381.198 825.641 362.641C842.532 344.084 865.165 331.737 889.911 327.58C914.657 323.422 940.082 327.695 962.11 339.713C984.138 351.731 1001.49 370.798 1011.39 393.857C1021.29 416.915 1023.15 442.629 1016.69 466.876C1010.23 491.122 995.811 512.496 975.75 527.57" stroke="#263238" stroke-linecap="round" stroke-linejoin="round"/>
<path d="M977.678 389.784C995.884 389.784 1010.64 375.025 1010.64 356.82C1010.64 338.614 995.884 323.855 977.678 323.855C959.473 323.855 944.714 338.614 944.714 356.82C944.714 375.025 959.473 389.784 977.678 389.784Z" fill="#587FC3" stroke="#263238" stroke-linecap="round" stroke-linejoin="round"/>
<path d="M958.571 349.463L977.678 370.963L1021.14 319.535L1019.61 317.928L977.678 353.999L966.571 341.892L958.571 349.463Z" fill="#263238" stroke="#263238" stroke-linecap="round" stroke-linejoin="round"/>
<path d="M850.536 410.928H973.643" stroke="#263238" stroke-linecap="round" stroke-linejoin="round"/>
<path d="M847.75 442.713H970.857" stroke="#263238" stroke-linecap="round" stroke-linejoin="round"/>
<path d="M845 474.5H968.071" stroke="#263238" stroke-linecap="round" stroke-linejoin="round"/>
<path d="M1232.68 130.428V186.785L1386.86 67.9277L1232.68 130.428Z" fill="#587FC3" stroke="#263238" stroke-linecap="round" stroke-linejoin="round"/>
<path d="M1232.68 130.429L1390.39 66L1175.04 88.3214L1232.68 130.429Z" fill="#587FC3" stroke="#263238" stroke-linecap="round" stroke-linejoin="round"/>
<path d="M1251.21 142.107L1325.46 197.036L1390.39 66L1251.21 142.107Z" fill="#587FC3" stroke="#263238" stroke-linecap="round" stroke-linejoin="round"/>
<path d="M1251.21 142.107L1232.68 186.786L1272.18 157.607L1251.21 142.107Z" fill="#587FC3" stroke="#263238" stroke-linecap="round" stroke-linejoin="round"/>
<path d="M641.857 614.429C642.25 613.287 642.679 612.179 643.071 611.072" stroke="#263238" stroke-linecap="round" stroke-linejoin="round"/>
<path d="M647.75 597.571C680.964 498.392 675 438.785 728.929 342.713C739.643 323.285 793.893 231.356 870.964 198.571C911.036 181.535 936.536 206.963 926.214 224.963C903.179 265.035 818.571 216.999 903.179 169.571C981.464 125.713 1148.11 211.463 1226.21 186.856" stroke="#263238" stroke-linecap="round" stroke-linejoin="round" stroke-dasharray="2 4"/>
<path d="M1232.89 184.393C1234 183.928 1235.07 183.428 1236.14 182.893" stroke="#263238" stroke-linecap="round" stroke-linejoin="round"/>
</svg>
