<svg width="20" height="20" viewBox="0 0 20 20" fill="none" xmlns="http://www.w3.org/2000/svg">
<path d="M9.57178 5C3.94783 5 1 9.14188 1 9.8002C1 10.4568 3.94783 14.6004 9.57178 14.6004C15.1949 14.6004 18.1436 10.4568 18.1436 9.8002C18.1436 9.14188 15.1949 5 9.57178 5ZM9.57178 13.4921C7.46741 13.4921 5.76162 11.8394 5.76162 9.8002C5.76162 7.76097 7.46741 6.10662 9.57178 6.10662C11.6761 6.10662 13.3811 7.76097 13.3811 9.8002C13.3811 11.8394 11.6761 13.4921 9.57178 13.4921ZM9.57178 9.8002C9.22291 9.41704 10.1401 7.95383 9.57178 7.95383C8.51916 7.95383 7.66627 8.78101 7.66627 9.8002C7.66627 10.8194 8.51916 11.6466 9.57178 11.6466C10.6235 11.6466 11.4773 10.8194 11.4773 9.8002C11.4773 9.33132 9.86836 10.1251 9.57178 9.8002Z" fill="#CECECE"/>
</svg>
